<svg width="30" height="30" viewBox="0 0 30 30" fill="none" xmlns="http://www.w3.org/2000/svg">
<circle cx="15" cy="15" r="15" fill="url(#paint0_linear_401_46)"/>
<path d="M9.25414 22.0415C8.87406 22.0415 8.48949 21.7428 8.48949 21.1721V18.5917H7.36195C6.75082 18.5917 6.25356 18.0944 6.25356 17.4833V8.852C6.25356 8.24087 6.75082 7.74341 7.36195 7.74341H19.333C19.9444 7.74341 20.4414 8.24067 20.4414 8.852V17.4831C20.4414 18.0944 19.9442 18.5915 19.333 18.5915H13.5065C13.3832 18.5915 13.1407 18.6879 13.051 18.7723L9.87563 21.77C9.63773 21.9944 9.40629 22.0415 9.25414 22.0415Z" fill="#3B3633"/>
<path d="M7.46272 17.3822H8.59026C9.20159 17.3822 9.69866 17.8794 9.69866 18.4906V20.2734L12.2207 17.8929C12.5344 17.597 13.075 17.382 13.5063 17.382H19.2319V8.95288H7.46272V17.3822Z" fill="#3B3633"/>
<path d="M20.8048 24.2565C20.5919 24.2565 20.3741 24.1657 20.1856 23.9921L17.7122 21.7116C17.6202 21.6269 17.3729 21.5302 17.2477 21.5302H14.6743C14.3403 21.5302 14.0696 21.2595 14.0696 20.9255C14.0696 20.5915 14.3403 20.3208 14.6743 20.3208H17.2477C17.6766 20.3208 18.2169 20.5317 18.5321 20.8226L20.3614 22.5093V21.3958C20.3614 20.7845 20.8587 20.2872 21.4698 20.2872H22.5268V13.3544H19.9716C19.6376 13.3544 19.3667 13.0837 19.3667 12.7497C19.3667 12.4157 19.6376 12.145 19.9716 12.145H22.628C23.2391 12.145 23.7366 12.6423 23.7366 13.2534V20.3878C23.7366 20.9989 23.2393 21.4964 22.628 21.4964H21.571V23.3853C21.571 23.763 21.395 24.0655 21.1001 24.1948C21.007 24.2357 20.9064 24.2567 20.8048 24.2565Z" fill="#3B3633"/>
<rect x="8" y="11" width="10" height="1" rx="0.5" fill="#F0D0B1"/>
<rect x="8" y="14" width="6" height="1" rx="0.5" fill="#F0D0B1"/>
<defs>
<linearGradient id="paint0_linear_401_46" x1="15" y1="0" x2="15" y2="30" gradientUnits="userSpaceOnUse">
<stop stop-color="#FEE0C1"/>
<stop offset="1" stop-color="#D7B695"/>
</linearGradient>
</defs>
</svg>
