<?xml version="1.0" standalone="no"?><!DOCTYPE svg PUBLIC "-//W3C//DTD SVG 1.1//EN" "http://www.w3.org/Graphics/SVG/1.1/DTD/svg11.dtd"><svg class="icon" width="200px" height="200.00px" viewBox="0 0 1024 1024" version="1.1" xmlns="http://www.w3.org/2000/svg"><path d="M959 304.73v414.54c0 16.33-5.81 30.32-17.43 41.87-11.62 11.55-25.59 17.32-42.13 17.32H124.55c-16.42 0-30.5-5.77-42.12-17.32C70.81 749.58 65 735.7 65 719.27V304.73c0-16.32 5.81-30.32 17.43-41.87 11.62-11.55 25.59-17.32 42.12-17.32h774.78c16.43 0 30.5 5.77 42.13 17.32 11.62 11.67 17.54 25.55 17.54 41.87z m-59.56 414.65V304.73H124.55v414.54l774.89 0.11zM243.78 371.25v44.42c0 4.89-2.46 7.44-7.49 7.44H191.6c-4.92 0-7.49-2.44-7.49-7.44v-44.42c0-4.89 2.46-7.44 7.49-7.44h44.69c5.03 0.11 7.49 2.66 7.49 7.44z m59.67 118.48v44.42c0 4.89-2.46 7.44-7.49 7.44H191.71c-4.92 0-7.48-2.44-7.48-7.44v-44.42c0-4.89 2.46-7.44 7.48-7.44h104.25c4.92 0 7.49 2.67 7.49 7.44z m-59.67 118.6v44.42c0 4.89-2.46 7.44-7.49 7.44H191.6c-4.92 0-7.49-2.44-7.49-7.44v-44.42c0-4.89 2.46-7.44 7.49-7.44h44.69c5.03 0 7.49 2.45 7.49 7.44z m119.33-237.08v44.42c0 4.89-2.46 7.44-7.48 7.44h-44.7c-4.92 0-7.48-2.44-7.48-7.44v-44.42c0-4.89 2.46-7.44 7.48-7.44h44.7c4.8 0.11 7.48 2.66 7.48 7.44z m357.56 237.08v44.42c0 4.89-2.46 7.44-7.49 7.44H310.82c-4.92 0-7.49-2.44-7.49-7.44v-44.42c0-4.89 2.46-7.44 7.49-7.44h402.25c5.03 0 7.6 2.45 7.6 7.44z m-298.11-118.6v44.42c0 4.89-2.46 7.44-7.49 7.44h-44.69c-4.92 0-7.49-2.44-7.49-7.44v-44.42c0-4.89 2.46-7.44 7.49-7.44h44.69c5.14 0 7.49 2.67 7.49 7.44z m59.66-118.48v44.42c0 4.89-2.46 7.44-7.49 7.44h-44.69c-4.92 0-7.49-2.44-7.49-7.44v-44.42c0-4.89 2.46-7.44 7.49-7.44h44.69c4.92 0.11 7.49 2.66 7.49 7.44z m59.56 118.48v44.42c0 4.89-2.46 7.44-7.49 7.44H489.6c-4.92 0-7.49-2.44-7.49-7.44v-44.42c0-4.89 2.46-7.44 7.49-7.44h44.69c5.03 0 7.49 2.67 7.49 7.44z m59.66-118.48v44.42c0 4.89-2.46 7.44-7.48 7.44h-44.69c-4.92 0-7.49-2.44-7.49-7.44v-44.42c0-4.89 2.46-7.44 7.49-7.44h44.69c5.03 0.11 7.48 2.66 7.48 7.44zM661 489.73v44.42c0 4.89-2.46 7.44-7.48 7.44h-44.69c-4.92 0-7.49-2.44-7.49-7.44v-44.42c0-4.89 2.46-7.44 7.49-7.44h44.69c5.02 0 7.48 2.67 7.48 7.44z m59.67-118.48v44.42c0 4.89-2.46 7.44-7.49 7.44h-44.69c-4.92 0-7.49-2.44-7.49-7.44v-44.42c0-4.89 2.46-7.44 7.49-7.44h44.69c4.92 0.11 7.49 2.66 7.49 7.44z m118.99 0v162.9c0 4.89-2.46 7.44-7.49 7.44H727.93c-4.92 0-7.49-2.44-7.49-7.44v-44.42c0-4.89 2.45-7.44 7.49-7.44h52.18V371.13c0-4.88 2.46-7.44 7.48-7.44h44.7c5.03 0.23 7.37 2.78 7.37 7.56z m0 237.08v44.42c0 4.89-2.46 7.44-7.49 7.44h-44.69c-4.92 0-7.49-2.44-7.49-7.44v-44.42c0-4.89 2.46-7.44 7.49-7.44h44.69c5.15 0 7.49 2.45 7.49 7.44z" /></svg>