<?xml version="1.0" standalone="no"?><!DOCTYPE svg PUBLIC "-//W3C//DTD SVG 1.1//EN" "http://www.w3.org/Graphics/SVG/1.1/DTD/svg11.dtd"><svg class="icon" width="200px" height="200.00px" viewBox="0 0 1024 1024" version="1.1" xmlns="http://www.w3.org/2000/svg"><path d="M514.048 650.24c-75.776 0-137.728-61.44-137.728-137.728V275.968c0-75.776 61.44-137.728 137.728-137.728 75.776 0 137.728 61.44 137.728 137.728v237.056c-0.512 75.776-61.952 137.216-137.728 137.216z m0-445.44c-38.912 0-71.168 31.744-71.168 71.168v237.056c0 38.912 31.744 71.168 71.168 71.168 38.912 0 71.168-31.744 71.168-71.168V275.968c-0.512-38.912-32.256-71.168-71.168-71.168zM515.072 881.664c-18.432 0-33.28-14.848-33.28-33.28v-74.752c0-18.432 14.848-33.28 33.28-33.28s33.28 14.848 33.28 33.28v74.752c0 18.432-14.848 33.28-33.28 33.28z"  /><path d="M516.096 784.896c-166.4 0-302.08-135.168-302.08-302.08 0-18.432 14.848-33.28 33.28-33.28s33.28 14.848 33.28 33.28c0 129.536 105.472 235.52 235.52 235.52s235.52-105.472 235.52-235.52c0-18.432 14.848-33.28 33.28-33.28s33.28 14.848 33.28 33.28c0 166.4-135.68 302.08-302.08 302.08zM651.776 884.224h-271.36c-18.432 0-33.28-14.848-33.28-33.28s14.848-33.28 33.28-33.28h270.848c18.432 0 33.28 14.848 33.28 33.28s-14.848 33.28-32.768 33.28z"  /></svg>